<?xml version="1.0" encoding="UTF-8" standalone="no"?>
<!-- Created with Inkscape (http://www.inkscape.org/) -->

<svg
   xmlns:dc="http://purl.org/dc/elements/1.1/"
   xmlns:cc="http://creativecommons.org/ns#"
   xmlns:rdf="http://www.w3.org/1999/02/22-rdf-syntax-ns#"
   xmlns:svg="http://www.w3.org/2000/svg"
   xmlns="http://www.w3.org/2000/svg"
   xmlns:sodipodi="http://sodipodi.sourceforge.net/DTD/sodipodi-0.dtd"
   xmlns:inkscape="http://www.inkscape.org/namespaces/inkscape"
   id="svg2"
   version="1.1"
   inkscape:version="0.48.4 r9939"
   width="360"
   height="360"
   xml:space="preserve"
   sodipodi:docname="zealous_vector-2.ai"><metadata
     id="metadata8"><rdf:RDF><cc:Work
         rdf:about=""><dc:format>image/svg+xml</dc:format><dc:type
           rdf:resource="http://purl.org/dc/dcmitype/StillImage" /><dc:title></dc:title></cc:Work></rdf:RDF></metadata><defs
     id="defs6"><clipPath
       clipPathUnits="userSpaceOnUse"
       id="clipPath16"><path
         d="M 0,288 288,288 288,0 0,0 0,288 z"
         id="path18" /></clipPath><clipPath
       clipPathUnits="userSpaceOnUse"
       id="clipPath32"><path
         d="m 102.673,198.681 0,-19.083 35.342,0 11.278,19.083 -46.62,0 z"
         id="path34" /></clipPath><clipPath
       clipPathUnits="userSpaceOnUse"
       id="clipPath44"><path
         d="M 0,288 288,288 288,0 0,0 0,288 z"
         id="path46" /></clipPath><clipPath
       clipPathUnits="userSpaceOnUse"
       id="clipPath60"><path
         d="m 144.661,119.44 -11.459,-19.085 46.801,0 0,19.085 -35.342,0 z"
         id="path62" /></clipPath></defs><sodipodi:namedview
     pagecolor="#ffffff"
     bordercolor="#666666"
     borderopacity="1"
     objecttolerance="10"
     gridtolerance="10"
     guidetolerance="10"
     inkscape:pageopacity="0"
     inkscape:pageshadow="2"
     inkscape:window-width="640"
     inkscape:window-height="480"
     id="namedview4"
     showgrid="false"
     inkscape:zoom="0.65555556"
     inkscape:cx="180"
     inkscape:cy="180"
     inkscape:window-x="65"
     inkscape:window-y="24"
     inkscape:window-maximized="0"
     inkscape:current-layer="g10" /><g
     id="g10"
     inkscape:groupmode="layer"
     inkscape:label="zealous_vector-2"
     transform="matrix(1.25,0,0,-1.25,0,360)"><g
       id="g12"><g
         id="g14"
         clip-path="url(#clipPath16)"><g
           id="g20"
           transform="translate(141.3382,225.5186)"><path
             d="m 0,0 c -41.906,0 -76,-34.093 -76,-76 0,-41.906 34.094,-76 76,-76 41.906,0 76,34.094 76,76 C 76,-34.093 41.906,0 0,0 m 0,-166 c -49.626,0 -90,40.374 -90,90 0,49.626 40.374,90 90,90 49.626,0 90,-40.374 90,-90 0,-49.626 -40.374,-90 -90,-90"
             style="fill:#c3e0f5;fill-opacity:1;fill-rule:nonzero;stroke:none"
             id="path22" /></g><g
           id="g24"
           transform="translate(138.015,179.5977)"><path
             d="m 0,0 11.278,19.084 -46.62,0 L -35.342,0 0,0 z"
             style="fill:#c3e0f5;fill-opacity:1;fill-rule:nonzero;stroke:none"
             id="path26" /></g></g></g><g
       id="g28"><g
         id="g30"
         clip-path="url(#clipPath32)"><g
           id="g36"
           transform="translate(124.6605,119.4395)"><path
             d="m 0,0 17.719,30.079 -0.001,0 28.96,49.163 -88.665,0 0,-19.084 55.341,0 -17.717,-30.079 0.001,0 -28.961,-49.163 88.665,0 L 55.342,0 0,0 z"
             style="fill:#c3e0f5;fill-opacity:1;fill-rule:nonzero;stroke:none"
             id="path38" /></g></g></g><g
       id="g40"><g
         id="g42"
         clip-path="url(#clipPath44)"><g
           id="g48"
           transform="translate(123.1878,100.3555)"><path
             d="m 0,0 20.761,34.851 8.43,14.312 -10e-4,0 28.96,49.163 -22.041,0 L 18.15,67.907 7.109,49.163 7.11,49.163 -21.851,0 0,0 z"
             style="fill:#c3e0f5;fill-opacity:1;fill-rule:nonzero;stroke:none"
             id="path50" /></g><g
           id="g52"
           transform="translate(144.6605,119.4395)"><path
             d="m 0,0 -11.459,-19.084 46.801,0 L 35.342,0 0,0 z"
             style="fill:#c3e0f5;fill-opacity:1;fill-rule:nonzero;stroke:none"
             id="path54" /></g></g></g><g
       id="g56"><g
         id="g58"
         clip-path="url(#clipPath60)"><g
           id="g64"
           transform="translate(144.6605,119.4395)"><path
             d="m 0,0 17.719,30.079 -0.001,0 28.96,49.163 -22.041,0 L 6.678,48.823 -4.363,30.079 l 0.001,0 -28.961,-49.163 88.665,0 L 55.342,0 0,0 z"
             style="fill:#c3e0f5;fill-opacity:1;fill-rule:nonzero;stroke:none"
             id="path66" /></g></g></g></g></svg>
